<?xml version="1.0" encoding="UTF-8" standalone="no"?>
<svg width="429px" height="314px" viewBox="0 0 429 314" version="1.1" xmlns="http://www.w3.org/2000/svg" xmlns:xlink="http://www.w3.org/1999/xlink" xmlns:sketch="http://www.bohemiancoding.com/sketch/ns">
    <!-- Generator: Sketch 3.0.1 (7597) - http://www.bohemiancoding.com/sketch -->
    <title>logo</title>
    <description>Created with Sketch.</description>
    <defs></defs>
    <g id="Page-1" stroke="none" stroke-width="1" fill="none" fill-rule="evenodd" sketch:type="MSPage">
        <g id="remotedebug" sketch:type="MSLayerGroup">
            <path d="M428.571,228.143 C428.571,251.803667 420.200333,272.004667 403.459,288.746 C386.717667,305.487333 366.516667,313.858 342.856,313.858 L99.999,313.858 C72.469,313.858 48.92,304.073667 29.352,284.505 C9.784,264.936333 -0.000333333333,241.387333 -0.001,213.858 C-0.001,194.215333 5.28166667,176.246667 15.847,159.952 C26.4123333,143.657333 40.326,131.492 57.588,123.456 C57.2906667,119.289333 57.142,116.09 57.142,113.858 C57.142,82.3106667 68.3026667,55.376 90.624,33.054 C112.945333,10.732 139.88,-0.428666667 171.428,-0.428 C194.94,-0.428 216.257,6.11966667 235.379,19.215 C254.501,32.3103333 268.452,49.4233333 277.232,70.554 C287.648667,61.328 300,56.715 314.286,56.715 C330.06,56.715 343.527333,62.2953333 354.688,73.456 C365.848667,84.6166667 371.429,98.084 371.429,113.858 C371.429,125.018667 368.378333,135.286667 362.277,144.662 C381.473667,149.126 397.322,159.133333 409.822,174.684 C422.322,190.234667 428.572,208.054667 428.572,228.144 L428.571,228.143 Z" id="Shape" fill="#428BCA" sketch:type="MSShapeGroup"></path>
            <path d="M342.372367,224.240105 C342.372367,226.714016 341.46852,228.854819 339.660825,230.662513 L303.125669,267.197669 C301.317975,269.005363 299.177172,269.90921 296.703261,269.90921 C294.22935,269.90921 292.088548,269.005363 290.280854,267.197669 C288.47316,265.389975 287.569313,263.249172 287.569313,260.775261 L287.569313,242.508003 L141.429327,242.508003 L141.429327,260.775261 C141.429327,263.249172 140.52548,265.389975 138.717786,267.197669 C136.910092,269.005363 134.769289,269.90921 132.295378,269.90921 C129.821467,269.90921 127.680664,269.005363 125.87297,267.197669 L89.3378139,230.662513 C87.5301198,228.854819 86.6262727,226.714016 86.6262727,224.240105 C86.6262727,221.766194 87.5301198,219.625392 89.3378139,217.817697 L125.87297,181.282541 C127.680664,179.474847 129.821467,178.571 132.295378,178.571 C134.769289,178.571 136.910092,179.474847 138.717786,181.282541 C140.52548,183.090235 141.429327,185.231038 141.429327,187.704949 L141.429327,205.972207 L287.569313,205.972207 L287.569313,187.704949 C287.569313,185.231038 288.47316,183.090235 290.280854,181.282541 C292.088548,179.474847 294.22935,178.571 296.703261,178.571 C299.177172,178.571 301.317975,179.474847 303.125669,181.282541 L339.660825,217.817697 C341.46852,219.625392 342.372367,221.766194 342.372367,224.240105 L342.372367,224.240105 Z" id="Shape" fill="#FFFFFF" sketch:type="MSShapeGroup"></path>
        </g>
    </g>
</svg>